<svg width="19" height="19" xmlns="http://www.w3.org/2000/svg">
 <g>
  <title>Layer 1</title>
  <g transform="translate(20 72) scale(1.06667 1.06667)" id="Document">
   <g transform="matrix(0.0376561 0 0 -0.0376607 184.796 169.871)" id="Spread">
    <g id="MouseOff">
     <linearGradient gradientTransform="translate(-323.091 -308.747) translate(-5058.62 6539.76) translate(-14.9413 7.91011) translate(-21.9725 -85.2534) translate(8.78901 151.171) translate(0.9375 0) translate(225.937 -224.062) translate(-0.9375 0) translate(0 -24)" y2="0.86665" y1="0.11538" x2="0.499967" x1="0.499967" id="path116_1_">
      <stop stop-color="#0080B1" offset="0"/>
      <stop stop-color="#0996CB" offset="1"/>
     </linearGradient>
     <path id="path116" fill="url(#path116_1_)" d="m-5168.893555,6300.152344c129.375,0 234.375,-105 234.375,-234.375c0,-129.375 -105,-234.375 -234.375,-234.375c-129.375,0 -234.375,105 -234.375,234.375c0,129.375 105,234.375 234.375,234.375z"/>
     <path id="path118" fill="#FFFFFF" d="m-5168.893555,6256.20752c105.114258,0 190.430176,-85.315918 190.430176,-190.430176c0,-105.11377 -85.315918,-190.430176 -190.430176,-190.430176c-105.11377,0 -190.429688,85.316406 -190.429688,190.430176c0,105.114258 85.315918,190.430176 190.429688,190.430176z"/>
     <linearGradient gradientTransform="translate(-323.091 -308.747) translate(-5058.62 6539.76) translate(-14.9413 7.91011) translate(-21.9725 -85.2534) translate(8.78901 151.171) translate(0.9375 0) translate(225.937 -224.062) translate(-0.9375 0) translate(0 -24)" y2="0.183199" y1="-5.826935" x2="0.499734" x1="0.499734" id="path120_1_">
      <stop stop-color="#0080B1" offset="0"/>
      <stop stop-color="#0996CB" offset="1"/>
     </linearGradient>
     <path id="path120" fill="url(#path120_1_)" d="m-5168.893555,6226.910156c16.165039,0 29.297363,13.125 29.297363,29.297363s-13.132324,29.296875 -29.297363,29.296875c-16.171875,0 -29.296875,-13.125 -29.296875,-29.296875s13.125,-29.297363 29.296875,-29.297363z"/>
     <linearGradient gradientTransform="translate(-323.091 -308.747) translate(-5058.62 6539.76) translate(-14.9413 7.91011) translate(-21.9725 -85.2534) translate(8.78901 151.171) translate(0.9375 0) translate(225.937 -224.062) translate(-0.9375 0) translate(0 -24)" y2="3.43319" y1="-2.576945" x2="0.499646" x1="0.499646" id="path122_1_">
      <stop stop-color="#0080B1" offset="0"/>
      <stop stop-color="#0996CB" offset="1"/>
     </linearGradient>
     <path id="path122" fill="url(#path122_1_)" d="m-4978.463379,6036.480469c16.165039,0 29.296875,13.131836 29.296875,29.296875c0,16.171875 -13.131836,29.296875 -29.296875,29.296875s-29.296875,-13.125 -29.296875,-29.296875c0,-16.165039 13.131836,-29.296875 29.296875,-29.296875z"/>
     <linearGradient gradientTransform="translate(-323.091 -308.747) translate(-5058.62 6539.76) translate(-14.9413 7.91011) translate(-21.9725 -85.2534) translate(8.78901 151.171) translate(0.9375 0) translate(225.937 -224.062) translate(-0.9375 0) translate(0 -24)" y2="3.43319" y1="-2.576945" x2="0.499823" x1="0.499823" id="path124_1_">
      <stop stop-color="#0080B1" offset="0"/>
      <stop stop-color="#0996CB" offset="1"/>
     </linearGradient>
     <path id="path124" fill="url(#path124_1_)" d="m-5359.323242,6036.480469c16.171875,0 29.296875,13.131836 29.296875,29.296875c0,16.171875 -13.125,29.296875 -29.296875,29.296875s-29.297363,-13.125 -29.297363,-29.296875c0,-16.165039 13.125,-29.296875 29.297363,-29.296875z"/>
     <linearGradient gradientTransform="translate(-323.091 -308.747) translate(-5058.62 6539.76) translate(-14.9413 7.91011) translate(-21.9725 -85.2534) translate(8.78901 151.171) translate(0.9375 0) translate(225.937 -224.062) translate(-0.9375 0) translate(0 -24)" y2="6.683181" y1="0.673047" x2="0.499734" x1="0.499734" id="path126_1_">
      <stop stop-color="#0080B1" offset="0"/>
      <stop stop-color="#0996CB" offset="1"/>
     </linearGradient>
     <path id="path126" fill="url(#path126_1_)" d="m-5168.893555,5846.050293c16.165039,0 29.297363,13.131836 29.297363,29.296875s-13.132324,29.297363 -29.297363,29.297363c-16.171875,0 -29.296875,-13.132324 -29.296875,-29.297363s13.125,-29.296875 29.296875,-29.296875z"/>
     <path id="path128" fill="#4A4A4A" d="m-5038.316406,5964.058594l-0.070801,0l-159.824219,76.151855c-7.810059,4.505859 -13.317871,12.60498 -14.434082,21.981934c0.335938,2.289063 1.058105,4.600098 2.231934,6.780762c5.507324,10.29248 18.710938,14.42041 29.447266,9.127441l152.606934,-95.047363c5.36377,-2.631836 7.496094,-9.125977 4.75,-14.303711c-2.762207,-5.148926 -9.356934,-6.565918 -14.707031,-4.690918z"/>
     <path id="path130" fill="#4A4A4A" d="m-5212.216309,6059.762207c-0.229004,0.486328 -0.307129,0.994141 -0.057129,0.292969c-0.37207,1.738281 -0.542969,3.533203 -0.564941,4.413086c0.036133,7.696289 2.302734,14.491211 6.916016,20.15625l84.879883,107.423828l0.071289,0.01416c5.149902,6.386719 14.246582,7.402832 20.283691,2.289063c6.05127,-5.157227 6.737305,-14.455078 1.559082,-20.821289l-63.027832,-126.006836c-5.757324,-7.123047 -13.960938,-10.871094 -22.165039,-11.042969c-13.790039,0.37207 -25.199219,10.242676 -27.89502,23.281738z"/>
    </g>
   </g>
  </g>
 </g>
</svg>