<?xml version="1.0" ?><!DOCTYPE svg  PUBLIC '-//W3C//DTD SVG 1.1//EN'  'http://www.w3.org/Graphics/SVG/1.1/DTD/svg11.dtd'><svg enable-background="new -240 -240 512 512" height="512px" id="svg2" inkscape:version="0.48.4 r9939" sodipodi:docname="warning.svg" version="1.1" viewBox="-240 -240 512 512" width="512px" x="0px" xml:space="preserve" xmlns="http://www.w3.org/2000/svg" xmlns:cc="http://creativecommons.org/ns#" xmlns:dc="http://purl.org/dc/elements/1.1/" xmlns:inkscape="http://www.inkscape.org/namespaces/inkscape" xmlns:rdf="http://www.w3.org/1999/02/22-rdf-syntax-ns#" xmlns:sodipodi="http://sodipodi.sourceforge.net/DTD/sodipodi-0.dtd" xmlns:svg="http://www.w3.org/2000/svg" xmlns:xlink="http://www.w3.org/1999/xlink" y="0px"><g id="Document" transform="scale(1.0666667,-1.0666667)"><g id="Spread" transform="translate(0,-24)"><g id="MouseOff"><linearGradient gradientTransform="matrix(0 1.3333 -1.3333 0 -558.4015 676.0154)" gradientUnits="userSpaceOnUse" id="path116_1_" x1="-635.4953" x2="-371.3703" y1="-430.0502" y2="-430.0502"><stop offset="0" style="stop-color:#0080B1"/><stop offset="1" style="stop-color:#0996CB"/></linearGradient><path d="M15,243.375     c129.375,0,234.375-105,234.375-234.375c0-129.375-105-234.375-234.375-234.375c-129.375,0-234.375,105-234.375,234.375     C-219.375,138.375-114.375,243.375,15,243.375z" fill="url(#path116_1_)" id="path116"/><path d="M15,199.43c105.114,0,190.43-85.316,190.43-190.43     c0-105.114-85.316-190.43-190.43-190.43C-90.114-181.43-175.43-96.114-175.43,9C-175.43,114.114-90.114,199.43,15,199.43z" fill="#FFFFFF" id="path118"/><linearGradient gradientTransform="matrix(0 1.3333 -1.3333 0 -558.4015 676.0154)" gradientUnits="userSpaceOnUse" id="path120_1_" x1="-635.4953" x2="-371.3703" y1="-430.0502" y2="-430.0502"><stop offset="0" style="stop-color:#0080B1"/><stop offset="1" style="stop-color:#0996CB"/></linearGradient><path d="M15,170.133     c16.165,0,29.297,13.125,29.297,29.297S31.165,228.727,15,228.727c-16.172,0-29.297-13.125-29.297-29.297     S-1.172,170.133,15,170.133z" fill="url(#path120_1_)" id="path120"/><linearGradient gradientTransform="matrix(0 1.3333 -1.3333 0 -558.4015 676.0154)" gradientUnits="userSpaceOnUse" id="path122_1_" x1="-635.4953" x2="-371.3703" y1="-572.8724" y2="-572.8724"><stop offset="0" style="stop-color:#0080B1"/><stop offset="1" style="stop-color:#0996CB"/></linearGradient><path d="M205.43-20.297     c16.165,0,29.297,13.132,29.297,29.297c0,16.172-13.132,29.297-29.297,29.297S176.133,25.172,176.133,9     C176.133-7.165,189.265-20.297,205.43-20.297z" fill="url(#path122_1_)" id="path122"/><linearGradient gradientTransform="matrix(0 1.3333 -1.3333 0 -558.4015 676.0154)" gradientUnits="userSpaceOnUse" id="path124_1_" x1="-635.4953" x2="-371.3703" y1="-287.228" y2="-287.228"><stop offset="0" style="stop-color:#0080B1"/><stop offset="1" style="stop-color:#0996CB"/></linearGradient><path d="M-175.43-20.297     c16.172,0,29.297,13.132,29.297,29.297c0,16.172-13.125,29.297-29.297,29.297S-204.727,25.172-204.727,9     C-204.727-7.165-191.602-20.297-175.43-20.297z" fill="url(#path124_1_)" id="path124"/><linearGradient gradientTransform="matrix(0 1.3333 -1.3333 0 -558.4015 676.0154)" gradientUnits="userSpaceOnUse" id="path126_1_" x1="-635.4953" x2="-371.3703" y1="-430.0502" y2="-430.0502"><stop offset="0" style="stop-color:#0080B1"/><stop offset="1" style="stop-color:#0996CB"/></linearGradient><path d="M15-210.727     c16.165,0,29.297,13.132,29.297,29.297S31.165-152.133,15-152.133c-16.172,0-29.297-13.132-29.297-29.297     S-1.172-210.727,15-210.727z" fill="url(#path126_1_)" id="path126"/><path d="M145.577-92.719h-0.071L-14.318-16.567     c-7.81,4.506-13.318,12.605-14.434,21.982c0.336,2.289,1.058,4.6,2.232,6.781c5.507,10.292,18.711,14.42,29.447,9.127     l152.607-95.047c5.364-2.632,7.496-9.126,4.75-14.304C157.522-93.177,150.927-94.594,145.577-92.719z" fill="#4A4A4A" id="path128"/><path d="M-28.323,2.985c-0.229,0.486-0.307,0.994-0.057,0.293     c-0.372,1.738-0.543,3.533-0.565,4.413c0.036,7.696,2.303,14.491,6.916,20.156l84.88,107.424l0.071,0.014     c5.15,6.387,14.247,7.403,20.284,2.289c6.051-5.157,6.737-14.455,1.559-20.821L21.737-9.254     C15.98-16.377,7.776-20.125-0.428-20.297C-14.218-19.925-25.627-10.054-28.323,2.985z" fill="#4A4A4A" id="path130"/></g></g></g></svg>